<svg xmlns="http://www.w3.org/2000/svg" version="1.1" xmlns:xlink="http://www.w3.org/1999/xlink" xmlns:svgjs="http://svgjs.dev/svgjs" viewBox="0 0 7.981310597584985 2.0423009634168166"><g transform="matrix(0.7097232401647926,0,0,0.7097232401647926,1.454810742887164,0.769198731449907)"><rect width="8.816611561001801" height="8.816611561001801" x="-0.8353009634168167" y="-4.053305780500901" fill="#ede8e8"></rect><g transform="matrix(1,0,0,1,0,0)" clip-path="url(#SvgjsClipPath44159)"><g clip-path="url(#SvgjsClipPath441546c386af7-e9b4-4fa1-87f0-bf9842b0edc3)"><path d=" M 4.191587736077733 -0.24847350135566806 C 4.191587736077733 -0.24847350135566806 4.188937871644534 -0.24745330354888626 4.188672885201214 -0.24602237675495853 C 4.176470259486329 -0.17764262505625716 4.134814390596442 -0.16701666867912943 4.109097456272245 -0.11594053172921742 C 4.101015831617015 -0.09730722893106944 4.096322732359311 -0.07738174728341202 4.095238665286615 -0.05710029199003225 C 4.095238665286615 -0.055775359773433064 4.095238665286615 -0.054450427556833464 4.095331410541777 -0.05319174195106405 C 4.12781120578957 -0.06105490824556303 4.161111029512241 -0.06502669168143119 4.194529085598583 -0.06502338664529803 C 4.213950565968823 -0.06504282228630592 4.233349992549784 -0.06371470088642275 4.252587615329975 -0.061048589995499225 C 4.2609810793432334 -0.07090061113261245 4.268205880355033 -0.08169112932069286 4.274117763849719 -0.09320469489236888 C 4.282182318837129 -0.11186486782226798 4.286861622188593 -0.13181135171546504 4.287936806868851 -0.15211118124238465 C 4.287940321049168 -0.17766805760959603 4.2777912615662945 -0.2021795868335068 4.259722305710946 -0.22025351214868172 C 4.2416533498555955 -0.23832743746385704 4.217144612445119 -0.24848323698066616 4.191587736077788 -0.24848675067783335 Z M 4.493765026717585 -0.16908356293702448 C 4.492502333512261 -0.16980137354256863 4.490908032995062 -0.16952362083922437 4.489962471255947 -0.16842109682872447 C 4.445193011657049 -0.11530456426524965 4.403841877176978 -0.12692421980482743 4.356064821446399 -0.09554982491575073 C 4.339726762335432 -0.08348293002460491 4.325689213866904 -0.06857925404506676 4.314620941711162 -0.05154882600248056 C 4.313984974247199 -0.05042263361837104 4.313296009494567 -0.04928319191209585 4.3127395379635916 -0.04814375020581979 C 4.363536144089737 -0.033237250416956604 4.411047438285381 -0.008838708251953042 4.452758374613831 0.02376032118903615 C 4.464991413823368 0.01943308161871421 4.476673524933985 0.013683188331303109 4.487564343943899 0.006628947628404158 C 4.503875227911045 -0.005500117693674478 4.517906927304913 -0.020424498730565316 4.529008223679129 -0.03745154721786187 C 4.555607169168867 -0.08353938973590261 4.539832593704346 -0.14246276635825006 4.493765026717582 -0.16909681225919101 Z M 4.718619273196692 0.6542690644244171 C 4.719340323787845 0.6530256719667178 4.719085425517387 0.6514464109432334 4.718009804377056 0.6504930076071085 C 4.664853523847082 0.6057235480082106 4.676473179386661 0.5643724135281396 4.645138532464081 0.5165953577975606 C 4.633038400070925 0.5002727761154124 4.6181247511164685 0.48623851199702 4.601097785584312 0.47515147806232766 C 4.599971593200201 0.4745022612761938 4.598818902171759 0.47382654584572853 4.597692709787652 0.47328332363692277 C 4.582813139635881 0.5240759686591852 4.55841676366466 0.5715783114781989 4.525801887714961 0.6132624123206623 C 4.530172589306242 0.6254873018325626 4.5359153099565805 0.6371772053235742 4.542920011953427 0.6481081296172295 C 4.5550395165719655 0.6644211770398654 4.569971201606839 0.6784420651810863 4.5870137561218565 0.689512261385965 C 4.609137838183992 0.7023063011370556 4.635440401028617 0.7057807534729206 4.660127731634526 0.6991702945025442 C 4.684815062240435 0.6925598355321678 4.70586200884889 0.6764067346010558 4.718632522518853 0.6542690644244171 Z M 3.8952666458352496 0.879149809547854 C 3.896529339040573 0.8798676201533981 3.898123639557773 0.8795898674500537 3.899069201296888 0.8784873434395539 C 3.943825411573622 0.825397309520411 3.9851897953758604 0.837016965059989 4.03299334975077 0.8056823181374102 C 4.049307359989628 0.7935608961975458 4.063335940550334 0.7786350607240953 4.074423980163837 0.7616018232911439 C 4.075059947627803 0.7604623815848683 4.075748912380435 0.7593361892007591 4.076265635944909 0.758183498172317 C 4.025468873618278 0.7433069459037958 3.9779588813739943 0.7189202516733619 3.9362600486168366 0.6863191747439592 C 3.9240346314922414 0.6906840421768268 3.912362073179164 0.6964647377223501 3.9014805779310993 0.703543293559753 C 3.885160410781281 0.7156261972277154 3.871129838998746 0.7305272298115963 3.860049947518033 0.7475442924730231 C 3.8334387086530075 0.7936241654381766 3.8492024155269244 0.8525512502761257 3.8952666458352465 0.8791895575143516 Z M 3.6704123993561457 0.05579718218641244 C 3.6697051669957093 0.05704551588274481 3.669964504415547 0.05861809385410155 3.6710351174979454 0.05957323900372069 C 3.7241913980279198 0.10434269860261858 3.712558493166174 0.14569383308268996 3.7439063894109212 0.1934973874576007 C 3.7559810310154016 0.2098285714445754 3.770883359842704 0.22386485105066029 3.7879073883241894 0.23494126719283365 C 3.789060079352631 0.2355639853346353 3.7901995210589052 0.23626619940943328 3.791325713443016 0.23678292297390724 C 3.806223461223027 0.18598832075896043 3.8306278746477025 0.13848334061063639 3.863243034160038 0.09679058496800158 C 3.8588249849835723 0.08458361875754533 3.8530472565786105 0.07291260737951755 3.846018915344246 0.06199786496009757 C 3.833895991908867 0.04569825104985786 3.8189807644346496 0.0316756943327437 3.8019649191423137 0.020580483869197252 C 3.7558871177939976 -0.006046450496415806 3.696948329762686 0.009720387123071328 3.6703196541009837 0.055797182186411554 Z M 4.715691172998007 0.05078893840766607 C 4.715011471159855 0.04951455984951969 4.7134887191613135 0.048946368805286244 4.712140354657521 0.049464006191066945 C 4.646834445701327 0.07314054490170058 4.6167452350623535 0.042322621543595396 4.559773149748574 0.045634952085094604 C 4.5395672152392805 0.047937119244197746 4.519933623983017 0.05382360729909136 4.501794115950184 0.06301806276688027 C 4.500654674243902 0.06366727955301416 4.49958147914846 0.06434299498347984 4.498455286764349 0.06507170770260962 C 4.535054244987125 0.10334640433401865 4.564061726293391 0.14821538502784315 4.583939913379354 0.19729994291924163 C 4.596661864767013 0.19965030244823911 4.609613477999778 0.2005173002444593 4.622535188848893 0.19988356074161068 C 4.64272150553192 0.19751091400221976 4.662330816551128 0.19159493018832785 4.680461225358626 0.18240770480466345 C 4.702598892993642 0.16964422126983264 4.718754785574751 0.1486040168468289 4.725370214938996 0.12392165604829891 C 4.731985644303244 0.09923929524976893 4.7285179332844764 0.07293952248374397 4.715730920964511 0.05081543705199876 Z M 4.498826267784997 0.8762217093491689 C 4.500068633102595 0.8755012905581825 4.500624567477636 0.8740002677455734 4.500151200001595 0.8726443923643499 C 4.47655415722396 0.8073384834081596 4.507252836682571 0.7772492727691847 4.504006752751901 0.7202771874554048 C 4.501692892971343 0.7001023423050903 4.495792539290568 0.6805032967707758 4.486583894103615 0.6624041482343384 C 4.485947926639648 0.6612514572058965 4.485258961887016 0.6601252648217866 4.48451699984572 0.6589593244711791 C 4.446256086232246 0.6955662896719415 4.401395024783765 0.7245789605004684 4.352315263273419 0.7444572004083463 C 4.349958717089777 0.7571783751319427 4.349091670974781 0.7701307101729409 4.349731645451054 0.7830524758778905 C 4.352087121926262 0.8032550169381449 4.358003875975552 0.8228803383677434 4.367207501387997 0.8410182603541199 C 4.379988134112073 0.8631523515102257 4.401039730469017 0.8793012749764335 4.425729285251606 0.8859109987809513 C 4.450418840034196 0.8925207225854692 4.476722993946446 0.8890495664014719 4.498852766429327 0.8762614573156671 Z M 3.673393496843496 0.6593700534583251 C 3.674123845856064 0.6606004819029181 3.6756309051022154 0.6611307434895268 3.6769708138283126 0.6606287390640944 C 3.7422899721066702 0.6370051976421252 3.7723659334234805 0.6677568743894002 3.829338018737259 0.664537289103063 C 3.8495449507735273 0.6621908022990346 3.869175418601339 0.6562783350693597 3.887317052535653 0.6470746824882807 C 3.888443244919764 0.6464254657021471 3.889542938659541 0.645749750271682 3.8906823803658153 0.645100533485548 C 3.8540696821238933 0.6067959836137831 3.8250453653053462 0.5619018033551102 3.805144756462155 0.5127928023359196 C 3.792430290617552 0.5104556798012583 3.779485909005048 0.5096152510397454 3.76657597963694 0.510288680446547 C 3.74639194691998 0.5125824471611284 3.726782227984336 0.5184743375415641 3.708676441771541 0.5276850404504982 C 3.686528392843675 0.5404622480866426 3.6703646773185454 0.5615160553684868 3.6637425394025214 0.5862130267558758 C 3.6571204014864906 0.6109099981432646 3.6605825315457667 0.6372261938426989 3.673366998199162 0.6593700534583247 Z M 3.8902584020565025 -0.16615546273833975 C 3.8890029908853303 -0.16544609491289472 3.8884430054238317 -0.16393413416683444 3.8889334698399045 -0.1625781457535207 C 3.9125305126175425 -0.09724573815299828 3.8818185838367656 -0.06718302615835506 3.885091166411769 -0.010210940844575689 C 3.8873956868808683 0.009991978216786268 3.8932868083901977 0.02962157197408183 3.902487526415721 0.047754843631653665 C 3.903123493879688 0.04890753466009501 3.9038124586323195 0.04998072975554091 3.904541171351448 0.05114667010614832 C 3.942824450103531 0.014548627013920179 3.9876905952805237 -0.014470507967793783 4.036769406568081 -0.0343777044753511 C 4.039140941180958 -0.0471014230380363 4.040003688755441 -0.06006042526504632 4.039339775068286 -0.07298622926706089 C 4.036994275080082 -0.0931579196590262 4.031086144052084 -0.11275299659927124 4.021890417775669 -0.13085926848812787 C 4.009120443817215 -0.15301495037203158 3.9880675297086 -0.16918614703856988 3.9633682835077537 -0.17581137999676055 C 3.938669037306907 -0.18243661295495125 3.912349221371986 -0.1789724993245388 3.890205404767842 -0.16618196138267113 Z M 4.798062208903999 0.3521315217510618 C 4.798088307650026 0.35069320088279915 4.797056610591317 0.3494529093368109 4.795637582947624 0.34921667087454283 C 4.727271080571088 0.33697429719316335 4.716645124193961 0.2953184283032742 4.665595485888378 0.2696014939790778 C 4.646936896901563 0.26155621141146973 4.627004177326197 0.2568690620063712 4.606715498182695 0.25575595231561316 L 4.6027407015329 0.25583544824860865 C 4.610647593881048 0.2883121175361932 4.61462438274568 0.3216210605097615 4.6145855955493005 0.3550463726275814 C 4.614598870419561 0.3744544424368505 4.613270773827143 0.3938402256975068 4.610610798899502 0.41306515439249186 C 4.620445137981191 0.421496818175445 4.631238158671823 0.4287410829900466 4.64276690379637 0.43464830020088024 C 4.661432811531549 0.44270554114625343 4.6813839023100705 0.4473758999275536 4.701686639468551 0.4484408445756812 C 4.75487895337707 0.448440845078892 4.7980018949284124 0.4053238351563711 4.798009211615335 0.3521315217510618 Z M 4.1975234324081 0.9585264986443314 C 4.198958339140544 0.9585174636294527 4.200183212142187 0.9574874567871645 4.200438283284619 0.9560753740436223 C 4.2126409089995 0.8877088716670871 4.254270279245057 0.8770829152899589 4.280013712213589 0.8260067783400471 C 4.288101780163992 0.8073815831927982 4.292786592864585 0.7874576671098144 4.293846004554888 0.7671797879230282 C 4.293846004554888 0.7658548557064289 4.293846004554888 0.7645961701006592 4.293779757944057 0.7633109858505576 C 4.261304821802641 0.771170274706809 4.228007735371724 0.7751244705172666 4.194595332209418 0.7750896332561275 C 4.175173821707951 0.7751099635707785 4.155774333177709 0.7737818379297305 4.136536802478022 0.7711148366063287 C 4.128125763386594 0.7809563649047322 4.120895447359793 0.7917484786790583 4.114993404636114 0.8032709415031993 C 4.106924755639081 0.8219264459678726 4.102236645353189 0.8418677380451749 4.101147862972648 0.8621641785310479 C 4.101147862972648 0.9153909357865047 4.144296675152637 0.9585397479664965 4.197523432408094 0.9585397479664972 Z M 3.591075458226165 0.3579347248597681 C 3.591080974127674 0.3593644410384626 3.5920964725864053 0.36059080802960636 3.5935000841825397 0.36086282505845285 C 3.6619063345255736 0.37306545077333436 3.672532290902701 0.4147213196632235 3.723608427852614 0.44045150330958655 C 3.7422330019977377 0.44852744182008925 3.7621503584753535 0.453211767155217 3.782422168947469 0.45428379565088545 L 3.786396965597264 0.45419105039572344 C 3.7784572329405877 0.421732224706261 3.7744536372770954 0.3884356541048703 3.7744725756478688 0.35501987398324947 C 3.7744526454661522 0.33560277774955244 3.7757807706637347 0.31620772278085246 3.7784473722976637 0.29697459357402206 C 3.7686029479038234 0.2885636529125814 3.757811381210827 0.2813292569465727 3.746291267400799 0.2754179464099497 C 3.7276255373907157 0.26734012086593667 3.7076687492175897 0.26265601860587834 3.6873582824064517 0.26158565406865036 C 3.634178092615425 0.26163682906564084 3.5910900556035816 0.30475451244945445 3.591075458226165 0.3579347248597681 Z" fill="#ff9500" transform="matrix(1,0,0,1,0,0)" fill-rule="evenodd"></path></g><g clip-path="url(#SvgjsClipPath441546c386af7-e9b4-4fa1-87f0-bf9842b0edc3)"><path d=" M 3.822872349520251 0.35501987398324913 C 3.8228723480514666 0.256451602621746 3.862029348954529 0.16192061905924116 3.931728887159374 0.09222356360928452 C 4.0014284253642165 0.022526508159327885 4.0959608036961725 -0.016627125387521424 4.194529080296833 -0.01662361277310659 C 4.293094925683916 -0.016627127207766268 4.387624580648444 0.022527350602474794 4.457319912214045 0.0922251669387128 C 4.527015243779646 0.16192298327495125 4.566166351463757 0.2564540340858464 4.566159323032581 0.35501987398324913 C 4.566144692535189 0.5602638132051083 4.399773023256587 0.7266473454147115 4.194529085599097 0.7266766100615809 C 3.98926230861322 0.7266546595256689 3.8228723483465927 0.5602469041757718 3.822872349520251 0.3549801260167507 Z M 3.9118812958314053 0.35501987398324913 C 3.911881293505179 0.5111305138073536 4.038418450027735 0.6376913957414099 4.194529086353653 0.6377206610392308 C 4.350628118431295 0.6376840780144979 4.4771458331049905 0.5111189095587516 4.477123878077096 0.35501987398324913 C 4.477137935554187 0.2800618931250682 4.447370847058859 0.2081691859682372 4.39437251939354 0.15516091909756907 C 4.341374191728222 0.10215265222690095 4.269487067774978 0.07237208289792435 4.194529085598614 0.07237208421607288 C 4.119565153656206 0.07236856997975266 4.047670540498749 0.10214631952519926 3.99466303581964 0.1551538242043075 C 3.9416555311405355 0.20816132888341582 3.911877781595084 0.28005594204087075 3.9118812958314053 0.35501987398324947 Z" fill="#ff9500" transform="matrix(1,0,0,1,0,0)" fill-rule="evenodd"></path></g></g><g><path d=" M 0.061 0.7099999999999999 L 0.061 -1.1102230246251565e-16 L 0.548 -1.1102230246251565e-16 L 0.548 0.16999999999999982 L 0.256 0.16999999999999982 L 0.256 0.28799999999999987 L 0.494 0.28799999999999987 L 0.494 0.44599999999999984 L 0.256 0.44599999999999984 L 0.256 0.7099999999999999 L 0.061 0.7099999999999999 M 0.7449677734375 -1.1102230246251565e-16 L 0.9629677734375 -1.1102230246251565e-16 L 1.1889677734375002 0.7099999999999999 L 0.9909677734375 0.7099999999999999 L 0.9479677734375 0.5709999999999998 L 0.7589677734375 0.5709999999999998 L 0.7169677734375 0.7099999999999999 L 0.5179677734375 0.7099999999999999 L 0.7449677734375 -1.1102230246251565e-16 M 0.9169677734375 0.44099999999999984 L 0.8539677734375 0.19099999999999984 L 0.7879677734375 0.44099999999999984 L 0.9169677734375 0.44099999999999984 M 1.7879599609375 0.7099999999999999 L 1.7879599609375 0.33599999999999985 L 1.6689599609375 0.5989999999999999 L 1.5649599609375 0.5989999999999999 L 1.4459599609375 0.33599999999999985 L 1.4459599609375 0.7099999999999999 L 1.2509599609375 0.7099999999999999 L 1.2509599609375 -1.1102230246251565e-16 L 1.4639599609375 -1.1102230246251565e-16 L 1.6169599609375 0.33399999999999985 L 1.7709599609375 -1.1102230246251565e-16 L 1.9829599609375 -1.1102230246251565e-16 L 1.9829599609375 0.7099999999999999 L 1.7879599609375 0.7099999999999999 M 2.1079638671875 0.7099999999999999 L 2.1079638671875 -1.1102230246251565e-16 L 2.3029638671874997 -1.1102230246251565e-16 L 2.3029638671874997 0.7099999999999999 L 2.1079638671875 0.7099999999999999 M 2.42798046875 0.7099999999999999 L 2.42798046875 -1.1102230246251565e-16 L 2.62298046875 -1.1102230246251565e-16 L 2.62298046875 0.5399999999999998 L 2.94498046875 0.5399999999999998 L 2.94498046875 0.7099999999999999 L 2.42798046875 0.7099999999999999 M 3.063994140625 -1.1102230246251565e-16 L 3.190994140625 0.28999999999999987 L 3.3209941406250003 -1.1102230246251565e-16 L 3.532994140625 -1.1102230246251565e-16 L 3.287994140625 0.47499999999999987 L 3.287994140625 0.7099999999999999 L 3.093994140625 0.7099999999999999 L 3.093994140625 0.47299999999999986 L 2.8529941406250003 -1.1102230246251565e-16 L 3.063994140625 -1.1102230246251565e-16" fill="#574848" fill-rule="nonzero"></path></g><g><path d=" M 5.511995962293168 0.16999999999999982 L 5.307995962293168 0.16999999999999982 L 5.307995962293168 0.7099999999999999 L 5.1129959622931676 0.7099999999999999 L 5.1129959622931676 0.16999999999999982 L 4.9079959622931675 0.16999999999999982 L 4.9079959622931675 -1.1102230246251565e-16 L 5.511995962293168 -1.1102230246251565e-16 L 5.511995962293168 0.16999999999999982 M 5.586019399793168 0.7099999999999999 L 5.586019399793168 -1.1102230246251565e-16 L 5.912019399793168 -1.1102230246251565e-16 Q 5.964019399793168 -1.1102230246251565e-16 6.0080193997931675 0.020999999999999797 Q 6.052019399793168 0.041999999999999815 6.084019399793168 0.07749999999999979 Q 6.116019399793168 0.11299999999999988 6.133519399793168 0.1569999999999998 Q 6.151019399793168 0.20099999999999985 6.151019399793168 0.24599999999999983 Q 6.151019399793168 0.28699999999999987 6.139019399793168 0.32499999999999984 Q 6.127019399793168 0.3629999999999998 6.1040193997931675 0.39449999999999985 Q 6.081019399793168 0.4259999999999998 6.049019399793168 0.44899999999999984 L 6.199019399793168 0.7099999999999999 L 5.985019399793168 0.7099999999999999 L 5.860019399793168 0.4919999999999999 L 5.781019399793168 0.4919999999999999 L 5.781019399793168 0.7099999999999999 L 5.586019399793168 0.7099999999999999 M 5.781019399793168 0.32199999999999984 L 5.904019399793167 0.32199999999999984 Q 5.916019399793168 0.32199999999999984 5.927019399793168 0.31299999999999983 Q 5.938019399793168 0.3039999999999998 5.9455193997931675 0.28699999999999987 Q 5.953019399793168 0.26999999999999985 5.953019399793168 0.24599999999999983 Q 5.953019399793168 0.22099999999999986 5.944519399793168 0.2044999999999998 Q 5.936019399793167 0.18799999999999983 5.923519399793168 0.17899999999999983 Q 5.911019399793168 0.16999999999999982 5.8990193997931675 0.16999999999999982 L 5.781019399793168 0.16999999999999982 L 5.781019399793168 0.32199999999999984 M 6.264007192761918 0.7099999999999999 L 6.264007192761918 -1.1102230246251565e-16 L 6.459007192761918 -1.1102230246251565e-16 L 6.459007192761918 0.7099999999999999 L 6.264007192761918 0.7099999999999999 M 6.584023794324418 0.7099999999999999 L 6.584023794324418 -1.1102230246251565e-16 L 6.890023794324418 -1.1102230246251565e-16 Q 6.942023794324418 -1.1102230246251565e-16 6.986023794324418 0.020999999999999797 Q 7.030023794324418 0.041999999999999815 7.062023794324418 0.07749999999999979 Q 7.094023794324418 0.11299999999999988 7.111523794324418 0.1569999999999998 Q 7.129023794324418 0.20099999999999985 7.129023794324418 0.24599999999999983 Q 7.129023794324418 0.30899999999999983 7.099523794324418 0.3649999999999998 Q 7.070023794324418 0.4209999999999999 7.017523794324418 0.45649999999999985 Q 6.965023794324418 0.4919999999999999 6.895023794324418 0.4919999999999999 L 6.779023794324418 0.4919999999999999 L 6.779023794324418 0.7099999999999999 L 6.584023794324418 0.7099999999999999 M 6.779023794324418 0.32199999999999984 L 6.882023794324418 0.32199999999999984 Q 6.8940237943244185 0.32199999999999984 6.905023794324418 0.31499999999999984 Q 6.916023794324418 0.30799999999999983 6.923523794324418 0.29099999999999987 Q 6.931023794324418 0.27399999999999985 6.931023794324418 0.24599999999999983 Q 6.931023794324418 0.21599999999999986 6.922523794324418 0.1994999999999998 Q 6.914023794324418 0.18299999999999983 6.901523794324418 0.17649999999999988 Q 6.889023794324418 0.16999999999999982 6.877023794324418 0.16999999999999982 L 6.779023794324418 0.16999999999999982 L 6.779023794324418 0.32199999999999984" fill="#574848" fill-rule="nonzero"></path></g><g></g></g><defs><clipPath id="SvgjsClipPath44159"><path d=" M 3.5910224609375003 -0.2484999999999999 h 1.2069735013556673 v 1.2069999999999996 h -1.2069735013556673 Z"></path></clipPath><clipPath id="SvgjsClipPath441546c386af7-e9b4-4fa1-87f0-bf9842b0edc3"><path d=" M 3.5910224609375003 -0.2484999999999999 L 4.797995962293168 -0.2484999999999999 L 4.797995962293168 0.9584999999999997 L 3.5910224609375003 0.9584999999999997 Z"></path></clipPath></defs></svg>